<svg xmlns="http://www.w3.org/2000/svg" xmlns:xlink="http://www.w3.org/1999/xlink" viewBox="0 0 32 40" version="1.1" xml:space="preserve" style="" x="0px" y="0px" fill-rule="evenodd" clip-rule="evenodd" stroke-linejoin="round" stroke-miterlimit="1.41421"><g transform="matrix(1,0,0,1,-273,-159)"><g transform="matrix(1,0,0,1,273,159)"><rect x="0" y="0" width="32" height="32" style="" fill="none"/><g transform="matrix(1,0,0,1,-273,-159)"><path d="M285.077,176.001C285.404,176.013 285.724,176.07 286.031,176.182C286.83,176.474 287.48,177.109 287.792,177.9C287.921,178.227 287.986,178.572 287.999,178.923C288.034,181.641 288.034,184.359 287.999,187.077C287.986,187.428 287.921,187.773 287.792,188.1C287.48,188.891 286.83,189.526 286.031,189.818C285.724,189.93 285.404,189.987 285.077,189.999C282.359,190.034 279.641,190.034 276.923,189.999C276.572,189.986 276.228,189.921 275.9,189.792C275.109,189.48 274.475,188.83 274.182,188.032C274.07,187.724 274.013,187.403 274.001,187.077C273.966,184.359 273.966,181.641 274.001,178.923C274.013,178.597 274.07,178.276 274.182,177.968C274.475,177.17 275.109,176.52 275.9,176.208C276.228,176.079 276.572,176.014 276.923,176.001C279.641,175.966 282.359,175.966 285.077,176.001ZM301.077,176.001C301.428,176.014 301.772,176.079 302.1,176.208C302.891,176.52 303.526,177.17 303.818,177.969C303.93,178.276 303.987,178.596 303.999,178.923C304.034,181.641 304.034,184.359 303.999,187.077C303.986,187.428 303.921,187.772 303.792,188.1C303.48,188.891 302.83,189.526 302.031,189.818C301.724,189.93 301.404,189.987 301.077,189.999C298.359,190.034 295.641,190.034 292.923,189.999C292.596,189.987 292.276,189.93 291.969,189.818C291.17,189.526 290.52,188.891 290.208,188.1C290.079,187.772 290.014,187.428 290.001,187.077C289.966,184.359 289.966,181.641 290.001,178.923C290.013,178.596 290.07,178.276 290.182,177.969C290.474,177.17 291.109,176.52 291.9,176.208C292.228,176.079 292.572,176.014 292.923,176.001C295.641,175.966 298.359,175.966 301.077,176.001ZM293.006,178C292.886,178.002 292.769,178.019 292.656,178.06C292.383,178.161 292.161,178.383 292.06,178.656C292.023,178.758 292.005,178.865 292,178.974C291.966,181.666 291.899,184.361 292.001,187.052C292.008,187.16 292.029,187.266 292.069,187.367C292.17,187.622 292.378,187.83 292.633,187.931C292.734,187.971 292.84,187.992 292.948,187.999C295.647,188.101 298.353,188.101 301.052,187.999C301.16,187.992 301.266,187.971 301.367,187.931C301.622,187.83 301.83,187.622 301.931,187.367C301.971,187.266 301.992,187.16 301.999,187.052C302.101,184.353 302.101,181.647 301.999,178.948C301.992,178.84 301.971,178.734 301.931,178.633C301.83,178.378 301.622,178.17 301.367,178.069C301.266,178.029 301.16,178.008 301.052,178.001C298.372,177.9 295.688,178 293.006,178ZM277.006,178C276.886,178.002 276.769,178.019 276.656,178.06C276.382,178.161 276.161,178.383 276.06,178.656C276.023,178.758 276.005,178.865 276,178.974C275.966,181.666 275.9,184.361 276.001,187.052C276.008,187.152 276.026,187.25 276.06,187.344C276.158,187.61 276.37,187.827 276.633,187.931C276.742,187.974 276.857,187.995 276.974,188C279.666,188.034 282.361,188.101 285.052,187.999C285.16,187.992 285.266,187.971 285.367,187.931C285.622,187.83 285.83,187.622 285.931,187.367C285.971,187.266 285.992,187.16 285.999,187.052C286.101,184.353 286.101,181.647 285.999,178.948C285.992,178.84 285.971,178.734 285.931,178.633C285.83,178.378 285.622,178.17 285.367,178.069C285.258,178.026 285.143,178.005 285.026,178C282.353,177.966 279.68,178 277.006,178ZM285.077,160.001C285.403,160.013 285.724,160.07 286.032,160.182C286.83,160.475 287.48,161.109 287.792,161.9C287.921,162.227 287.986,162.572 287.999,162.923C288.034,165.641 288.034,168.359 287.999,171.077C287.987,171.404 287.93,171.724 287.818,172.031C287.526,172.83 286.891,173.48 286.1,173.792C285.773,173.921 285.428,173.986 285.077,173.999C282.359,174.034 279.641,174.034 276.923,173.999C276.572,173.986 276.227,173.921 275.9,173.792C275.109,173.48 274.475,172.83 274.182,172.032C274.07,171.724 274.013,171.403 274.001,171.077C273.966,168.359 273.966,165.641 274.001,162.923C274.013,162.597 274.07,162.276 274.182,161.968C274.483,161.146 275.146,160.483 275.968,160.182C276.276,160.07 276.597,160.013 276.923,160.001C279.641,159.966 282.359,159.966 285.077,160.001ZM301.077,160.001C301.403,160.013 301.724,160.07 302.032,160.182C302.83,160.475 303.48,161.109 303.792,161.9C303.921,162.228 303.986,162.572 303.999,162.923C304.034,165.641 304.034,168.359 303.999,171.077C303.987,171.404 303.93,171.724 303.818,172.031C303.526,172.83 302.891,173.48 302.1,173.792C301.773,173.921 301.428,173.986 301.077,173.999C298.359,174.034 295.641,174.034 292.923,173.999C292.572,173.986 292.227,173.921 291.9,173.792C291.109,173.48 290.474,172.83 290.182,172.031C290.07,171.724 290.013,171.404 290.001,171.077C289.966,168.359 289.966,165.641 290.001,162.923C290.014,162.572 290.079,162.228 290.208,161.9C290.52,161.109 291.17,160.475 291.968,160.182C292.276,160.07 292.597,160.013 292.923,160.001C295.641,159.966 298.359,159.966 301.077,160.001ZM293.006,162C292.887,162.002 292.769,162.019 292.656,162.06C292.383,162.161 292.161,162.382 292.06,162.656C292.023,162.758 292.005,162.865 292,162.974C291.966,165.666 291.899,168.361 292.001,171.052C292.008,171.16 292.029,171.266 292.069,171.367C292.17,171.622 292.378,171.83 292.633,171.931C292.734,171.971 292.84,171.992 292.948,171.999C295.647,172.101 298.353,172.101 301.052,171.999C301.16,171.992 301.266,171.971 301.367,171.931C301.622,171.83 301.83,171.622 301.931,171.367C301.974,171.258 301.995,171.143 302,171.026C302.034,168.334 302.101,165.639 301.999,162.948C301.992,162.84 301.971,162.734 301.931,162.633C301.83,162.378 301.622,162.17 301.367,162.069C301.266,162.029 301.16,162.008 301.052,162.001C298.372,161.901 295.688,162 293.006,162ZM277.006,162C276.887,162.002 276.769,162.019 276.656,162.06C276.382,162.161 276.161,162.382 276.06,162.656C276.023,162.758 276.005,162.865 276,162.974C275.966,165.666 275.9,168.361 276.001,171.052C276.008,171.152 276.026,171.25 276.06,171.344C276.158,171.61 276.37,171.827 276.634,171.931C276.742,171.974 276.857,171.995 276.974,172C279.666,172.034 282.361,172.101 285.052,171.999C285.16,171.992 285.266,171.971 285.366,171.931C285.622,171.83 285.83,171.622 285.931,171.366C285.974,171.258 285.995,171.143 286,171.026C286.034,168.334 286.101,165.639 285.999,162.948C285.992,162.84 285.971,162.734 285.931,162.634C285.83,162.378 285.622,162.17 285.366,162.069C285.266,162.029 285.16,162.008 285.052,162.001C282.372,161.901 279.688,162 277.006,162Z"/></g></g></g><text x="0" y="47" fill="#000000" font-size="5px" font-weight="bold" font-family="'Helvetica Neue', Helvetica, Arial-Unicode, Arial, Sans-serif">Created by Explanaicon</text><text x="0" y="52" fill="#000000" font-size="5px" font-weight="bold" font-family="'Helvetica Neue', Helvetica, Arial-Unicode, Arial, Sans-serif">from the Noun Project</text></svg>