<svg xmlns="http://www.w3.org/2000/svg" viewBox="0 0 32 40" x="0px" y="0px"><title>landing page</title><g data-name="landing page"><path d="M27,4H5A3,3,0,0,0,2,7V25a3,3,0,0,0,3,3H27a3,3,0,0,0,3-3V7A3,3,0,0,0,27,4ZM12,7a1,1,0,1,1-1,1A1,1,0,0,1,12,7ZM9,7A1,1,0,1,1,8,8,1,1,0,0,1,9,7ZM6,7A1,1,0,1,1,5,8,1,1,0,0,1,6,7ZM17,25H15a1,1,0,0,1,0-2h2a1,1,0,0,1,0,2Zm11-5.52-5.48-3.33a1,1,0,0,0-1.08,0l-4.93,3.38-3.86-3.31a1,1,0,0,0-1.2-.07L4,21.14V12H28Z"/></g><text x="0" y="47" fill="#000000" font-size="5px" font-weight="bold" font-family="'Helvetica Neue', Helvetica, Arial-Unicode, Arial, Sans-serif">Created by Yoyon Pujiyono</text><text x="0" y="52" fill="#000000" font-size="5px" font-weight="bold" font-family="'Helvetica Neue', Helvetica, Arial-Unicode, Arial, Sans-serif">from the Noun Project</text></svg>