<svg width="90" height="90" viewBox="0 0 90 90" fill="none" xmlns="http://www.w3.org/2000/svg">
<rect x="1" y="1" width="88" height="88" stroke="black" stroke-width="2"/>
<path fill-rule="evenodd" clip-rule="evenodd" d="M36.12 69.168C36.024 69.168 35.88 68.952 35.688 68.52C35.496 68.088 35.304 67.632 35.112 67.152L30.2691 55H36.9352C37.2331 55.673 37.5373 56.3636 37.848 57.072C38.088 57.6 38.28 57.84 38.424 57.792C38.616 57.744 38.784 57.528 38.928 57.144L39.7945 55H42.1086C41.5524 56.4604 40.9962 57.943 40.44 59.448C39.624 61.608 38.712 64.104 37.704 66.936C37.512 67.416 37.272 67.896 36.984 68.376C36.696 68.904 36.408 69.168 36.12 69.168ZM50.4517 55C51.0628 56.6027 51.6856 58.2053 52.32 59.808C53.232 62.064 54.312 64.632 55.56 67.512C55.704 67.848 55.896 68.16 56.136 68.448C56.376 68.736 56.592 68.88 56.784 68.88C57.024 68.88 57.264 68.64 57.504 68.16C57.744 67.728 57.888 67.416 57.936 67.224L62.073 55H59.1489C58.9073 55.6756 58.671 56.3182 58.44 56.928C58.296 57.264 58.152 57.48 58.008 57.576C57.864 57.672 57.744 57.6 57.648 57.36L56.7307 55H50.4517ZM65.4541 35H68.8416L70.68 29.568C70.968 28.848 71.328 28.056 71.76 27.192C72.24 26.28 72.864 25.464 73.632 24.744C74.448 23.976 75.432 23.472 76.584 23.232C77.4 23.04 78 22.848 78.384 22.656C78.768 22.416 78.96 22.128 78.96 21.792C78.96 21.504 78.768 21.312 78.384 21.216C78 21.072 77.496 21 76.872 21C75.96 21 74.952 21.048 73.848 21.144C72.744 21.192 71.592 21.216 70.392 21.216H67.8C67.032 21.168 66.168 21.144 65.208 21.144C64.584 21.144 64.08 21.216 63.696 21.36C63.312 21.456 63.12 21.648 63.12 21.936C63.12 22.272 63.384 22.56 63.912 22.8C64.488 23.04 65.016 23.232 65.496 23.376C66.312 23.568 66.864 23.952 67.152 24.528C67.488 25.104 67.656 25.752 67.656 26.472C67.656 26.856 67.608 27.288 67.512 27.768C67.464 28.2 67.368 28.632 67.224 29.064C66.6276 31.0811 66.0377 33.0598 65.4541 35ZM50.8637 35H42.5921L40.296 29.28C39.672 27.744 38.688 26.472 37.344 25.464C36 24.408 34.704 23.712 33.456 23.376C32.688 23.136 32.088 22.896 31.656 22.656C31.272 22.416 31.08 22.128 31.08 21.792C31.08 21.504 31.272 21.312 31.656 21.216C32.04 21.072 32.544 21 33.168 21C33.936 21 34.656 21.024 35.328 21.072L37.488 21.216H39.936C41.04 21.216 42.048 21.192 42.96 21.144C43.92 21.096 44.76 21.072 45.48 21.072C46.104 21.072 46.608 21.144 46.992 21.288C47.376 21.384 47.568 21.576 47.568 21.864C47.568 22.248 47.328 22.56 46.848 22.8C46.368 23.04 45.864 23.304 45.336 23.592C44.856 23.88 44.616 24.312 44.616 24.888V25.176L44.76 25.464C44.856 25.656 45.024 26.136 45.264 26.904C45.552 27.624 45.864 28.44 46.2 29.352C46.584 30.264 46.944 31.128 47.28 31.944C47.616 32.712 47.856 33.264 48 33.6C48.24 34.176 48.432 34.488 48.576 34.536C48.768 34.536 49.008 34.224 49.296 33.6C49.68 32.736 50.064 31.752 50.448 30.648C50.88 29.544 51.24 28.512 51.528 27.552C51.864 26.544 52.08 25.848 52.176 25.464C52.224 25.32 52.248 25.152 52.248 24.96C52.248 24.384 52.032 23.952 51.6 23.664C51.168 23.376 50.712 23.112 50.232 22.872C49.8 22.584 49.584 22.248 49.584 21.864C49.584 21.576 49.776 21.384 50.16 21.288C50.544 21.144 51.048 21.072 51.672 21.072C52.728 21.072 53.448 21.096 53.832 21.144C54.216 21.192 54.744 21.216 55.416 21.216C56.232 21.216 56.928 21.192 57.504 21.144C58.08 21.048 58.8 21 59.664 21C60.288 21 60.792 21.072 61.176 21.216C61.56 21.312 61.752 21.504 61.752 21.792C61.752 22.128 61.56 22.416 61.176 22.656C60.792 22.848 60.192 23.04 59.376 23.232C57.84 23.568 56.784 23.976 56.208 24.456C55.68 24.936 55.104 25.68 54.48 26.688C54.24 27.12 53.88 27.84 53.4 28.848C52.968 29.856 52.488 30.96 51.96 32.16C51.5615 33.1563 51.196 34.103 50.8637 35ZM28.5065 35C27.7459 33.0791 26.9237 31.0044 26.04 28.776L25.752 27.84C25.56 27.168 25.464 26.448 25.464 25.68C25.464 25.152 25.56 24.672 25.752 24.24C25.944 23.76 26.328 23.448 26.904 23.304C27.72 23.064 28.32 22.848 28.704 22.656C29.088 22.464 29.28 22.2 29.28 21.864C29.28 21.576 29.088 21.384 28.704 21.288C28.32 21.144 27.816 21.072 27.192 21.072C26.472 21.072 25.512 21.096 24.312 21.144C23.112 21.192 21.84 21.216 20.496 21.216C19.296 21.216 18.192 21.192 17.184 21.144C16.224 21.048 15.192 21 14.088 21C13.464 21 12.96 21.072 12.576 21.216C12.192 21.312 12 21.504 12 21.792C12 22.128 12.192 22.416 12.576 22.656C13.008 22.896 13.608 23.136 14.376 23.376C15.624 23.712 16.656 24.288 17.472 25.104C18.288 25.872 18.984 26.88 19.56 28.128L22.2987 35H28.5065Z" fill="black"/>
<path d="M13.2402 38.8086C14.5163 38.8086 15.2324 39.5312 15.3887 40.9766C15.4017 41.1458 15.4082 41.3216 15.4082 41.5039C15.4082 43.2357 14.7116 44.1536 13.3184 44.2578C13.2402 44.2578 13.1621 44.2578 13.084 44.2578H11.7949V38.8086H13.2402ZM13.748 50C13.6699 49.6745 13.4941 49.4987 13.2207 49.4727H11.7949V44.8438H13.4355C15.6361 44.8438 17.0488 44.1797 17.6738 42.8516C17.8822 42.4089 17.9863 41.9206 17.9863 41.3867C17.9863 40.1497 17.4395 39.2643 16.3457 38.7305C15.7337 38.431 14.9915 38.2812 14.1191 38.2812H7.83008V38.8086H9.39258V49.4727H7.83008V50H13.748ZM21.3066 45.7812C21.3066 43.8021 21.6582 42.5846 22.3613 42.1289C22.6478 41.9596 22.9798 41.875 23.3574 41.875C24.347 41.875 24.972 42.4349 25.2324 43.5547C25.3626 44.1016 25.4277 44.8177 25.4277 45.7031C25.4277 47.7995 25.0306 49.0625 24.2363 49.4922C23.9759 49.6224 23.6829 49.6875 23.3574 49.6875C22.3809 49.6875 21.7624 49.1276 21.502 48.0078C21.3717 47.4479 21.3066 46.7057 21.3066 45.7812ZM23.4355 41.3672C21.9512 41.3672 20.7793 41.875 19.9199 42.8906C19.2689 43.6719 18.9434 44.6094 18.9434 45.7031C18.9434 47.2135 19.4772 48.3984 20.5449 49.2578C21.3262 49.8828 22.2441 50.1953 23.2988 50.1953C24.7441 50.1953 25.8965 49.6745 26.7559 48.6328C27.4329 47.8125 27.7715 46.8359 27.7715 45.7031C27.7715 44.1797 27.2246 43.0143 26.1309 42.207C25.3757 41.6471 24.4772 41.3672 23.4355 41.3672ZM33.709 49.4922H32.2832V45.2539C32.3743 44.0039 32.7259 43.1641 33.3379 42.7344C33.4811 42.6432 33.6048 42.5977 33.709 42.5977C33.8783 42.5977 34.0475 42.7474 34.2168 43.0469C34.4382 43.4635 34.6725 43.7109 34.9199 43.7891C35.0371 43.8281 35.1608 43.8477 35.291 43.8477C35.7598 43.8477 36.0918 43.6198 36.2871 43.1641C36.3522 43.0208 36.3848 42.8711 36.3848 42.7148C36.3848 42.0898 36.0788 41.6992 35.4668 41.543C35.3105 41.5039 35.1543 41.4844 34.998 41.4844C34.2038 41.4844 33.4941 41.8099 32.8691 42.4609C32.5957 42.7604 32.3809 43.099 32.2246 43.4766L32.1074 41.6406H28.8848V42.1289H30.1152V48.4375C30.1152 48.9974 29.9199 49.3294 29.5293 49.4336C29.36 49.4727 29.1452 49.4922 28.8848 49.4922V50H34.1777C34.1777 49.7005 34.0801 49.5378 33.8848 49.5117C33.8327 49.4987 33.7741 49.4922 33.709 49.4922ZM36.8145 42.207H38.1621V47.2852C38.2793 49.1732 39.1582 50.1497 40.7988 50.2148C41.8275 50.2148 42.5241 49.8047 42.8887 48.9844C43.0189 48.6979 43.123 48.3529 43.2012 47.9492L42.6738 47.8711C42.3874 49.0299 41.9251 49.6159 41.2871 49.6289C40.7402 49.6289 40.4212 49.2578 40.3301 48.5156C40.3171 48.3854 40.3105 48.2552 40.3105 48.125V42.207H43.0449V41.6992H40.3105V39.4336L38.1621 39.8438V41.6992H36.8145V42.207ZM48.8457 49.4922H47.459V42.1484H49.6855V41.6406H47.459V41.5234C47.459 39.4922 47.6608 38.2878 48.0645 37.9102C48.2337 37.7799 48.429 37.7148 48.6504 37.7148C48.9889 37.7148 49.2754 37.9622 49.5098 38.457C49.7702 39.0039 49.9525 39.3294 50.0566 39.4336C50.2259 39.6159 50.4277 39.707 50.6621 39.707C51.1699 39.707 51.4889 39.5052 51.6191 39.1016C51.6452 39.0104 51.6582 38.9193 51.6582 38.8281C51.6582 38.2812 51.3262 37.8451 50.6621 37.5195C50.2064 37.3112 49.666 37.207 49.041 37.207C47.5827 37.207 46.5345 37.7604 45.8965 38.8672C45.5059 39.5443 45.3105 40.3776 45.3105 41.3672V41.6406H43.7871V42.1484H45.3105V48.4375C45.3105 49.0234 45.0176 49.362 44.4316 49.4531C44.2624 49.4792 44.0605 49.4922 43.8262 49.4922V50H49.3145C49.3145 49.7005 49.2168 49.5378 49.0215 49.5117C48.9694 49.4987 48.9108 49.4922 48.8457 49.4922ZM52.8105 45.7812C52.8105 43.8021 53.1621 42.5846 53.8652 42.1289C54.1517 41.9596 54.4837 41.875 54.8613 41.875C55.8509 41.875 56.4759 42.4349 56.7363 43.5547C56.8665 44.1016 56.9316 44.8177 56.9316 45.7031C56.9316 47.7995 56.5345 49.0625 55.7402 49.4922C55.4798 49.6224 55.1868 49.6875 54.8613 49.6875C53.8848 49.6875 53.2663 49.1276 53.0059 48.0078C52.8757 47.4479 52.8105 46.7057 52.8105 45.7812ZM54.9395 41.3672C53.4551 41.3672 52.2832 41.875 51.4238 42.8906C50.7728 43.6719 50.4473 44.6094 50.4473 45.7031C50.4473 47.2135 50.9811 48.3984 52.0488 49.2578C52.8301 49.8828 53.748 50.1953 54.8027 50.1953C56.248 50.1953 57.4004 49.6745 58.2598 48.6328C58.9368 47.8125 59.2754 46.8359 59.2754 45.7031C59.2754 44.1797 58.7285 43.0143 57.6348 42.207C56.8796 41.6471 55.9811 41.3672 54.9395 41.3672ZM64.9785 49.4922H63.9824V37.3047H60.3301V37.8125H61.834V48.3984C61.834 48.9583 61.6387 49.2969 61.248 49.4141C61.0527 49.4661 60.7467 49.4922 60.3301 49.4922V50H65.4668C65.4668 49.7135 65.3822 49.5508 65.2129 49.5117C65.1348 49.4987 65.0566 49.4922 64.9785 49.4922ZM70.623 49.4922H69.8223V41.6406H66.4043V42.1289H67.6738V48.4375C67.6738 48.9974 67.459 49.3294 67.0293 49.4336C66.873 49.4727 66.6647 49.4922 66.4043 49.4922V50H71.0918C71.0918 49.7005 70.9941 49.5378 70.7988 49.5117C70.7467 49.4987 70.6882 49.4922 70.623 49.4922ZM70.0176 38.9844C70.0176 38.4505 69.7767 38.0534 69.2949 37.793C69.0996 37.6888 68.8978 37.6367 68.6895 37.6367C68.1556 37.6367 67.765 37.8776 67.5176 38.3594C67.4134 38.5677 67.3613 38.776 67.3613 38.9844C67.3613 39.5312 67.6022 39.9219 68.084 40.1562C68.2793 40.2474 68.4811 40.293 68.6895 40.293C69.2233 40.293 69.6139 40.0651 69.8613 39.6094C69.9655 39.4141 70.0176 39.2057 70.0176 38.9844ZM74.5684 45.7812C74.5684 43.8021 74.9199 42.5846 75.623 42.1289C75.9095 41.9596 76.2415 41.875 76.6191 41.875C77.6087 41.875 78.2337 42.4349 78.4941 43.5547C78.6243 44.1016 78.6895 44.8177 78.6895 45.7031C78.6895 47.7995 78.2923 49.0625 77.498 49.4922C77.2376 49.6224 76.9447 49.6875 76.6191 49.6875C75.6426 49.6875 75.0241 49.1276 74.7637 48.0078C74.6335 47.4479 74.5684 46.7057 74.5684 45.7812ZM76.6973 41.3672C75.2129 41.3672 74.041 41.875 73.1816 42.8906C72.5306 43.6719 72.2051 44.6094 72.2051 45.7031C72.2051 47.2135 72.7389 48.3984 73.8066 49.2578C74.5879 49.8828 75.5059 50.1953 76.5605 50.1953C78.0059 50.1953 79.1582 49.6745 80.0176 48.6328C80.6947 47.8125 81.0332 46.8359 81.0332 45.7031C81.0332 44.1797 80.4863 43.0143 79.3926 42.207C78.6374 41.6471 77.7389 41.3672 76.6973 41.3672Z" fill="black"/>
</svg>
