<svg width="1120" height="469" viewBox="0 0 1120 469" fill="none" xmlns="http://www.w3.org/2000/svg">
<path opacity="0.99" d="M1120 14.9999L1095 0.566148L1095 29.4337L1120 14.9999ZM2.18557e-07 17.5L1097.5 17.4999L1097.5 12.4999L-2.18557e-07 12.5L2.18557e-07 17.5Z" fill="#F1966F"/>
<mask id="path-2-inside-1_1202_11" fill="white">
<path d="M163 187C163 173.193 174.193 162 188 162H272C285.807 162 297 173.193 297 187V311H163V187Z"/>
</mask>
<path d="M158 187C158 170.431 171.431 157 188 157H272C288.569 157 302 170.431 302 187H292C292 175.954 283.046 167 272 167H188C176.954 167 168 175.954 168 187H158ZM297 311H163H297ZM158 311V187C158 170.431 171.431 157 188 157V167C176.954 167 168 175.954 168 187V311H158ZM272 157C288.569 157 302 170.431 302 187V311H292V187C292 175.954 283.046 167 272 167V157Z" fill="#EBCC2C" mask="url(#path-2-inside-1_1202_11)"/>
<mask id="path-4-inside-2_1202_11" fill="white">
<path d="M303 187C303 173.193 314.193 162 328 162H412C425.807 162 437 173.193 437 187V311H303V187Z"/>
</mask>
<path d="M298 187C298 170.431 311.431 157 328 157H412C428.569 157 442 170.431 442 187H432C432 175.954 423.046 167 412 167H328C316.954 167 308 175.954 308 187H298ZM437 311H303H437ZM298 311V187C298 170.431 311.431 157 328 157V167C316.954 167 308 175.954 308 187V311H298ZM412 157C428.569 157 442 170.431 442 187V311H432V187C432 175.954 423.046 167 412 167V157Z" fill="#EBCC2C" mask="url(#path-4-inside-2_1202_11)"/>
<mask id="path-6-inside-3_1202_11" fill="white">
<path d="M437 444C437 457.807 425.807 469 412 469H328C314.193 469 303 457.807 303 444V316H437V444Z"/>
</mask>
<path d="M442 444C442 460.569 428.569 474 412 474H328C311.431 474 298 460.569 298 444H308C308 455.046 316.954 464 328 464H412C423.046 464 432 455.046 432 444H442ZM303 316H437H303ZM442 316V444C442 460.569 428.569 474 412 474V464C423.046 464 432 455.046 432 444V316H442ZM328 474C311.431 474 298 460.569 298 444V316H308V444C308 455.046 316.954 464 328 464V474Z" fill="#39C660" mask="url(#path-6-inside-3_1202_11)"/>
<mask id="path-8-inside-4_1202_11" fill="white">
<path d="M963 443C963 456.807 951.807 468 938 468H854C840.193 468 829 456.807 829 443V167H963V443Z"/>
</mask>
<path d="M968 443C968 459.569 954.569 473 938 473H854C837.431 473 824 459.569 824 443H834C834 454.046 842.954 463 854 463H938C949.046 463 958 454.046 958 443H968ZM829 167H963H829ZM968 167V443C968 459.569 954.569 473 938 473V463C949.046 463 958 454.046 958 443V167H968ZM854 473C837.431 473 824 459.569 824 443V167H834V443C834 454.046 842.954 463 854 463V473Z" fill="#39C660" mask="url(#path-8-inside-4_1202_11)"/>
<mask id="path-10-inside-5_1202_11" fill="white">
<path d="M508 291C508 304.807 496.807 316 483 316L107 316C93.1929 316 82 304.807 82 291V17L508 17V291Z"/>
</mask>
<path d="M513 291C513 307.569 499.569 321 483 321L107 321C90.4315 321 77 307.569 77 291H87C87 302.046 95.9543 311 107 311L483 311C494.046 311 503 302.046 503 291H513ZM82 17L508 17L82 17ZM513 17V291C513 307.569 499.569 321 483 321V311C494.046 311 503 302.046 503 291V17H513ZM107 321C90.4315 321 77 307.569 77 291V17H87V291C87 302.046 95.9543 311 107 311V321Z" fill="#4EBDFC" mask="url(#path-10-inside-5_1202_11)"/>
<mask id="path-12-inside-6_1202_11" fill="white">
<path d="M1094 169L539 169C525.193 169 514 157.807 514 144V17L1094 17V169Z"/>
</mask>
<path d="M1094 174L539 174C522.431 174 509 160.569 509 144H519C519 155.046 527.954 164 539 164L1094 164V174ZM514 17L1094 17L514 17ZM1094 17V169V17ZM539 174C522.431 174 509 160.569 509 144V17L519 17V144C519 155.046 527.954 164 539 164V174Z" fill="#EBCC2C" mask="url(#path-12-inside-6_1202_11)"/>
<path d="M1120 166.5L1095 152.066V180.934L1120 166.5ZM1094 169H1097.5V164H1094V169Z" fill="#EBCC2C"/>
</svg>
