<svg xmlns="http://www.w3.org/2000/svg" viewBox="0 0 24 30" x="0px" y="0px"><title>ui 10</title><g data-name="Layer 2"><path d="M4,21.75H20A2.7528,2.7528,0,0,0,22.75,19V9A2.7528,2.7528,0,0,0,20,6.25H18.75V4.5A2.25278,2.25278,0,0,0,16.5,2.25h-9A2.25278,2.25278,0,0,0,5.25,4.5V6.25H4A2.7528,2.7528,0,0,0,1.25,9V19A2.7528,2.7528,0,0,0,4,21.75Zm16-1.5H4A1.25116,1.25116,0,0,1,2.75,19V12.75h3.5V14a.75.75,0,0,0,1.5,0V12.75h8.5V14a.75.75,0,0,0,1.5,0V12.75h3.5V19A1.25116,1.25116,0,0,1,20,20.25ZM6.75,4.5a.75113.75113,0,0,1,.75-.75h9a.75113.75113,0,0,1,.75.75V6.25H6.75ZM4,7.75H20A1.25116,1.25116,0,0,1,21.25,9v2.25H2.75V9A1.25116,1.25116,0,0,1,4,7.75Z"/></g><text x="0" y="39" fill="#000000" font-size="5px" font-weight="bold" font-family="'Helvetica Neue', Helvetica, Arial-Unicode, Arial, Sans-serif">Created by Anggara Putra</text><text x="0" y="44" fill="#000000" font-size="5px" font-weight="bold" font-family="'Helvetica Neue', Helvetica, Arial-Unicode, Arial, Sans-serif">from the Noun Project</text></svg>